<svg width="294" height="294" viewBox="0 0 294 294" fill="none" xmlns="http://www.w3.org/2000/svg">
<rect width="294" height="294" rx="50" fill="black"/>
<path d="M79.0431 196V78.8308H123.233C129.649 78.8308 135.452 80.4767 140.641 83.7686C145.885 87.0047 150.042 91.3567 153.111 96.8246C156.179 102.237 157.714 108.179 157.714 114.651C157.714 121.235 156.124 127.233 152.943 132.645C149.819 138.057 145.634 142.381 140.39 145.617C135.145 148.853 129.426 150.471 123.233 150.471H104.151V196H79.0431ZM104.151 125.364H120.387C122.619 125.364 124.655 124.806 126.497 123.69C128.338 122.518 129.816 120.984 130.932 119.087C132.048 117.19 132.606 115.097 132.606 112.81C132.606 110.522 132.048 108.43 130.932 106.533C129.816 104.636 128.338 103.129 126.497 102.014C124.655 100.842 122.619 100.256 120.387 100.256H104.151V125.364ZM165.557 198.176C160.982 198.176 156.491 197.395 152.083 195.833C147.731 194.27 143.797 191.983 140.282 188.97L156.351 169.721C157.3 170.446 158.527 171.199 160.034 171.98C161.54 172.706 163.381 173.068 165.557 173.068C168.18 173.068 170.579 172.427 172.755 171.143C174.931 169.804 176.661 168.047 177.944 165.871C179.283 163.695 179.952 161.296 179.952 158.673V78.8308H205.06V158.673C205.06 165.927 203.275 172.538 199.704 178.508C196.133 184.478 191.363 189.249 185.392 192.82C179.422 196.391 172.811 198.176 165.557 198.176Z" fill="white"/>
</svg>
